# Blender 4.1.0
# www.blender.org
mtllib 1.mtl
o 1
v -0.270497 0.787882 -0.251889
v -0.211291 0.794051 0.055630
v -0.465544 0.648096 -0.211533
v -0.406337 0.654265 0.095986
v -0.135537 0.586597 -0.273835
v -0.076331 0.592765 0.033684
v -0.159300 0.560169 -0.268730
v -0.100094 0.566338 0.038789
v -0.452307 0.614773 -0.213413
v -0.279129 0.738887 -0.249245
v -0.393101 0.620942 0.094106
v -0.219922 0.745056 0.058274
v 0.407330 0.485428 -0.376324
v 0.466536 0.491597 -0.068805
v 0.272370 0.686714 -0.354378
v 0.331576 0.692883 -0.046859
v 0.077324 0.546928 -0.314022
v 0.136530 0.553097 -0.006503
v 0.383567 0.459001 -0.371219
v 0.442774 0.465170 -0.063700
v 0.090560 0.513605 -0.315902
v 0.149767 0.519774 -0.008383
v 0.263738 0.637719 -0.351733
v 0.322945 0.643888 -0.044214
v 0.132522 0.451269 -0.163209
v 0.141419 0.368746 -0.034624
v -0.163587 0.506452 -0.107307
v -0.154690 0.423929 0.021279
v 0.093673 0.363772 -0.282618
v -0.202437 0.418954 -0.226715
v -0.008434 0.218178 -0.260039
v -0.008708 0.241581 -0.260456
v 0.039312 0.223153 -0.012045
v 0.039038 0.246555 -0.012461
v -0.121293 0.301889 -0.239990
v -0.136284 0.286663 -0.236798
v -0.073547 0.306863 0.008005
v -0.088537 0.291638 0.011197
v 0.123625 0.533793 -0.291795
v 0.171372 0.538767 -0.043801
v -0.002355 0.315816 -0.005881
v -0.050101 0.310842 -0.253876
v -0.019739 0.321959 -0.002657
v -0.067485 0.316985 -0.250652
v -0.172484 0.588976 -0.235892
v -0.124738 0.593950 0.012102
v 0.320785 -0.059781 -0.060561
v 0.000000 0.000000 0.000000
v 0.418129 0.492782 -0.090386
v 0.034342 0.268738 -0.012002
v 0.025499 0.288405 -0.010694
v 0.013023 0.304410 -0.008613
v 0.317215 0.643291 -0.073976
v -0.038113 0.322480 0.000870
v -0.056405 0.317348 0.004494
v -0.371496 0.639936 0.058688
v -0.225652 0.744459 0.028512
v -0.100502 0.272560 0.013883
v -0.108742 0.250744 0.015907
v -0.468840 0.087372 0.088513
v -0.148055 0.027591 0.027952
v -0.047746 -0.004975 -0.247994
v -0.085859 0.317505 -0.247125
v -0.104151 0.312374 -0.243500
v -0.156488 0.245770 -0.232088
v -0.195801 0.022616 -0.220043
v -0.148248 0.267586 -0.234112
v -0.022248 0.283431 -0.258688
v -0.034723 0.299435 -0.256608
v -0.013404 0.263764 -0.259997
v 0.370383 0.487808 -0.338381
v 0.273039 -0.064756 -0.308555
v -0.516586 0.082398 -0.159481
v -0.419242 0.634961 -0.189307
v -0.273399 0.739484 -0.219482
v 0.269469 0.638316 -0.321971
vn -0.5673 0.8183 0.0928
vn 0.1738 0.9833 -0.0531
vn 0.1739 0.9833 -0.0532
vn 0.1738 0.9833 -0.0533
vn 0.1727 0.9836 -0.0529
vn 0.8103 0.5616 -0.1673
vn 0.1726 0.9836 -0.0530
vn 0.7254 -0.6766 -0.1261
vn 0.7254 -0.6767 -0.1261
vn -0.1890 -0.0197 -0.9818
vn -0.9101 -0.3718 0.1827
vn 0.5673 -0.8183 -0.0928
vn 0.1890 0.0197 0.9818
vn -0.8103 -0.5616 0.1673
vn 0.1725 0.9836 -0.0533
vn 0.1739 0.9833 -0.0531
vn -0.9102 -0.3718 0.1827
vn 0.1732 0.9835 -0.0530
vn 0.2497 0.8227 0.5107
vn 0.1733 0.9834 -0.0530
vn 0.0362 0.8004 -0.5983
vn 0.1733 0.9834 -0.0531
vn 0.1734 0.9834 -0.0531
vn -0.9786 0.0865 0.1867
vn -0.9760 -0.1062 0.1900
vn 0.6089 -0.7867 -0.1014
vn 0.7674 -0.6268 -0.1352
vn 0.6089 -0.7867 -0.1015
vn 0.6090 -0.7867 -0.1015
vn -0.9666 0.1801 0.1825
vn -0.1739 -0.9833 0.0532
vn -0.4542 -0.8847 0.1052
vn -0.1738 -0.9833 0.0532
vn 0.9666 -0.1801 -0.1825
vn 0.1890 0.0198 0.9818
vn -0.9785 0.0874 0.1866
vn -0.9785 0.0873 0.1866
vn 0.3925 -0.9180 -0.0571
vn 0.1245 -0.9922 -0.0041
vn 0.3924 -0.9180 -0.0571
vn 0.9461 -0.2714 -0.1767
vn 0.8777 -0.4517 -0.1599
vn 0.9459 -0.2721 -0.1767
vn 0.6082 -0.7873 -0.1013
vn 0.3934 -0.9176 -0.0574
vn 0.3934 -0.9176 -0.0573
vn 0.1235 -0.9923 -0.0039
vn -0.1727 -0.9835 0.0530
vn -0.1727 -0.9836 0.0530
vn -0.6814 -0.7173 0.1456
vn -0.8381 -0.5177 0.1717
vn -0.8381 -0.5177 0.1718
vn -0.9324 -0.3100 0.1858
vn -0.8386 -0.5169 0.1718
vn -0.9324 -0.3100 0.1857
vn -0.1891 -0.0196 -0.9818
vn 0.7679 -0.6261 -0.1353
vn 0.8774 -0.4523 -0.1599
vn -0.4551 -0.8842 0.1054
vn -0.6807 -0.7180 0.1454
vn -0.6807 -0.7180 0.1455
vn -0.9759 -0.1069 0.1901
vn -0.9327 -0.3092 0.1858
vn -0.9759 -0.1070 0.1900
vn -0.1733 -0.9834 0.0531
vt 0.218750 0.054814
vt 0.218750 0.225000
vt 0.218750 0.025000
vt 0.218750 0.176105
vt 0.218750 0.162499
vt 0.218750 0.137499
vt 0.093750 0.340626
vt 0.093750 0.347275
vt 0.093750 0.358472
vt 0.093750 0.353342
vt 0.093750 0.412499
vt 0.093750 0.437500
vt 0.093750 0.387499
vt 0.093750 0.365626
vt 0.093750 0.364799
vt 0.093750 0.275000
vt 0.093750 0.362367
vt 0.093750 0.475000
vt 0.000000 0.000000
s 0
f 3/1/1 2/2/2 1/2/3
f 2/2/4 3/1/1 4/1/1
f 1/2/5 6/1/6 5/1/6
f 6/1/6 1/2/7 2/2/7
f 6/1/8 7/3/8 5/1/8
f 7/3/9 6/1/9 8/3/9
f 3/1/10 10/4/10 9/3/10
f 10/4/10 3/1/10 1/2/10
f 5/1/10 10/4/10 1/2/10
f 10/4/10 5/1/10 7/3/10
f 11/3/11 3/1/11 9/3/11
f 3/1/11 11/3/11 4/1/11
f 12/4/12 9/3/12 10/4/12
f 9/3/12 12/4/12 11/3/12
f 6/1/13 12/4/13 8/3/13
f 12/4/13 6/1/13 2/2/13
f 4/1/13 12/4/13 2/2/13
f 12/4/13 4/1/13 11/3/13
f 12/4/14 7/3/14 8/3/14
f 7/3/14 12/4/14 10/4/14
f 15/2/5 14/1/6 13/1/6
f 14/1/6 15/2/7 16/2/15
f 17/1/1 16/2/16 15/2/3
f 16/2/4 17/1/1 18/1/1
f 14/1/9 19/3/9 13/1/9
f 19/3/8 14/1/8 20/3/8
f 22/3/17 17/1/17 21/3/17
f 17/1/11 22/3/11 18/1/11
f 17/1/10 23/4/10 21/3/10
f 23/4/10 17/1/10 15/2/10
f 13/1/10 23/4/10 15/2/10
f 23/4/10 13/1/10 19/3/10
f 24/4/12 21/3/12 23/4/12
f 21/3/12 24/4/12 22/3/12
f 14/1/13 24/4/13 20/3/13
f 24/4/13 14/1/13 16/2/13
f 18/1/13 24/4/13 16/2/13
f 24/4/13 18/1/13 22/3/13
f 20/3/14 23/4/14 19/3/14
f 23/4/14 20/3/14 24/4/14
f 27/5/18 26/6/19 25/5/18
f 26/6/19 27/5/20 28/6/19
f 30/6/21 25/5/22 29/6/21
f 25/5/23 30/6/21 27/5/22
f 33/7/24 32/8/25 31/7/24
f 32/8/25 33/7/24 34/8/25
f 37/9/26 36/10/27 35/9/28
f 36/10/27 37/9/29 38/10/27
f 25/11/30 39/12/30 29/13/30
f 39/12/30 25/11/30 40/12/30
f 40/12/30 25/11/30 26/13/30
f 43/14/31 42/15/32 41/15/32
f 42/15/32 43/14/33 44/14/31
f 45/12/34 27/11/34 30/13/34
f 27/11/34 45/12/34 46/12/34
f 27/11/34 46/12/34 28/13/34
f 49/12/13 48/16/13 47/16/13
f 48/16/13 49/12/13 33/7/13
f 33/7/13 49/12/13 34/8/13
f 34/8/13 49/12/13 50/10/13
f 50/10/13 49/12/13 51/9/13
f 51/9/13 49/12/13 52/17/13
f 52/17/35 49/12/35 26/13/35
f 52/17/13 26/13/13 41/15/13
f 41/15/13 26/13/13 43/14/13
f 26/13/13 49/12/13 40/12/13
f 40/12/13 49/12/13 53/18/13
f 28/13/13 43/14/13 26/13/13
f 28/13/13 54/15/13 43/14/13
f 28/13/13 55/17/13 54/15/13
f 56/12/13 55/17/13 28/13/13
f 56/12/13 28/13/13 46/12/13
f 56/12/13 46/12/13 57/18/13
f 56/12/13 37/9/13 55/17/13
f 56/12/13 38/10/13 37/9/13
f 56/12/13 58/8/13 38/10/13
f 56/12/13 59/7/13 58/8/13
f 60/16/13 59/7/13 56/12/13
f 59/7/13 60/16/13 61/16/13
f 48/16/30 31/7/36 62/16/30
f 31/7/37 48/16/30 33/7/37
f 55/17/38 63/15/39 54/15/39
f 63/15/39 55/17/38 64/17/40
f 59/7/41 66/16/34 65/7/41
f 66/16/34 59/7/41 61/16/34
f 58/8/42 65/7/43 67/8/42
f 65/7/43 58/8/42 59/7/43
f 37/9/44 64/17/45 55/17/46
f 64/17/46 37/9/44 35/9/44
f 54/15/47 44/14/48 43/14/49
f 44/14/49 54/15/47 63/15/47
f 52/17/50 68/9/51 51/9/52
f 68/9/51 52/17/50 69/17/50
f 50/10/53 68/9/54 70/10/55
f 68/9/54 50/10/55 51/9/54
f 49/12/34 72/16/34 71/12/34
f 72/16/34 49/12/34 47/16/34
f 73/16/10 65/7/10 66/16/10
f 65/7/10 73/16/10 74/12/10
f 65/7/10 74/12/10 67/8/10
f 67/8/10 74/12/10 36/10/10
f 36/10/10 74/12/10 35/9/10
f 35/9/10 74/12/10 64/17/10
f 64/17/10 74/12/10 30/13/10
f 64/17/10 30/13/10 63/15/10
f 63/15/10 30/13/10 44/14/10
f 30/13/10 74/12/10 45/12/10
f 45/12/10 74/12/10 75/18/10
f 29/13/10 44/14/10 30/13/10
f 29/13/10 42/15/10 44/14/10
f 29/13/10 69/17/10 42/15/10
f 71/12/56 69/17/56 29/13/56
f 71/12/10 29/13/10 39/12/10
f 71/12/10 39/12/10 76/18/10
f 71/12/10 68/9/10 69/17/10
f 71/12/10 70/10/10 68/9/10
f 71/12/10 32/8/10 70/10/10
f 71/12/10 31/7/10 32/8/10
f 72/16/10 31/7/10 71/12/10
f 31/7/10 72/16/10 62/16/10
f 38/10/57 67/8/58 36/10/57
f 67/8/58 38/10/57 58/8/58
f 41/15/59 69/17/60 52/17/61
f 69/17/61 41/15/59 42/15/59
f 60/16/30 74/12/30 73/16/30
f 74/12/30 60/16/30 56/12/30
f 34/8/62 70/10/63 32/8/64
f 70/10/63 34/8/64 50/10/63
f 3/1/1 2/2/2 1/2/3
f 2/2/4 3/1/1 4/1/1
f 1/2/5 6/1/6 5/1/6
f 6/1/6 1/2/7 2/2/7
f 6/1/8 7/3/8 5/1/8
f 7/3/9 6/1/9 8/3/9
f 3/1/10 10/4/10 9/3/10
f 10/4/10 3/1/10 1/2/10
f 5/1/10 10/4/10 1/2/10
f 10/4/10 5/1/10 7/3/10
f 11/3/11 3/1/11 9/3/11
f 3/1/11 11/3/11 4/1/11
f 12/4/12 9/3/12 10/4/12
f 9/3/12 12/4/12 11/3/12
f 6/1/13 12/4/13 8/3/13
f 12/4/13 6/1/13 2/2/13
f 4/1/13 12/4/13 2/2/13
f 12/4/13 4/1/13 11/3/13
f 12/4/14 7/3/14 8/3/14
f 7/3/14 12/4/14 10/4/14
f 15/2/5 14/1/6 13/1/6
f 14/1/6 15/2/7 16/2/15
f 17/1/1 16/2/16 15/2/3
f 16/2/4 17/1/1 18/1/1
f 14/1/9 19/3/9 13/1/9
f 19/3/8 14/1/8 20/3/8
f 22/3/17 17/1/17 21/3/17
f 17/1/11 22/3/11 18/1/11
f 17/1/10 23/4/10 21/3/10
f 23/4/10 17/1/10 15/2/10
f 13/1/10 23/4/10 15/2/10
f 23/4/10 13/1/10 19/3/10
f 24/4/12 21/3/12 23/4/12
f 21/3/12 24/4/12 22/3/12
f 14/1/13 24/4/13 20/3/13
f 24/4/13 14/1/13 16/2/13
f 18/1/13 24/4/13 16/2/13
f 24/4/13 18/1/13 22/3/13
f 20/3/14 23/4/14 19/3/14
f 23/4/14 20/3/14 24/4/14
f 27/5/18 26/6/19 25/5/18
f 26/6/19 27/5/20 28/6/19
f 30/6/21 25/5/22 29/6/21
f 25/5/23 30/6/21 27/5/22
f 33/7/24 32/8/25 31/7/24
f 32/8/25 33/7/24 34/8/25
f 37/9/26 36/10/27 35/9/28
f 36/10/27 37/9/29 38/10/27
f 25/11/30 39/12/30 29/13/30
f 39/12/30 25/11/30 40/12/30
f 40/12/30 25/11/30 26/13/30
f 43/14/31 42/15/32 41/15/32
f 42/15/32 43/14/33 44/14/31
f 45/12/34 27/11/34 30/13/34
f 27/11/34 45/12/34 46/12/34
f 27/11/34 46/12/34 28/13/34
f 49/12/13 48/16/13 47/16/13
f 48/16/13 49/12/13 33/7/13
f 33/7/13 49/12/13 34/8/13
f 34/8/13 49/12/13 50/10/13
f 50/10/13 49/12/13 51/9/13
f 51/9/13 49/12/13 52/17/13
f 52/17/35 49/12/35 26/13/35
f 52/17/13 26/13/13 41/15/13
f 41/15/13 26/13/13 43/14/13
f 26/13/13 49/12/13 40/12/13
f 40/12/13 49/12/13 53/18/13
f 28/13/13 43/14/13 26/13/13
f 28/13/13 54/15/13 43/14/13
f 28/13/13 55/17/13 54/15/13
f 56/12/13 55/17/13 28/13/13
f 56/12/13 28/13/13 46/12/13
f 56/12/13 46/12/13 57/18/13
f 56/12/13 37/9/13 55/17/13
f 56/12/13 38/10/13 37/9/13
f 56/12/13 58/8/13 38/10/13
f 56/12/13 59/7/13 58/8/13
f 60/16/13 59/7/13 56/12/13
f 59/7/13 60/16/13 61/16/13
f 48/16/30 31/7/36 62/16/30
f 31/7/37 48/16/30 33/7/37
f 55/17/38 63/15/39 54/15/39
f 63/15/39 55/17/38 64/17/40
f 59/7/41 66/16/34 65/7/41
f 66/16/34 59/7/41 61/16/34
f 58/8/42 65/7/43 67/8/42
f 65/7/43 58/8/42 59/7/43
f 37/9/44 64/17/45 55/17/46
f 64/17/46 37/9/44 35/9/44
f 54/15/47 44/14/48 43/14/49
f 44/14/49 54/15/47 63/15/47
f 52/17/50 68/9/51 51/9/52
f 68/9/51 52/17/50 69/17/50
f 50/10/53 68/9/54 70/10/55
f 68/9/54 50/10/55 51/9/54
f 49/12/34 72/16/34 71/12/34
f 72/16/34 49/12/34 47/16/34
f 73/16/10 65/7/10 66/16/10
f 65/7/10 73/16/10 74/12/10
f 65/7/10 74/12/10 67/8/10
f 67/8/10 74/12/10 36/10/10
f 36/10/10 74/12/10 35/9/10
f 35/9/10 74/12/10 64/17/10
f 64/17/10 74/12/10 30/13/10
f 64/17/10 30/13/10 63/15/10
f 63/15/10 30/13/10 44/14/10
f 30/13/10 74/12/10 45/12/10
f 45/12/10 74/12/10 75/18/10
f 29/13/10 44/14/10 30/13/10
f 29/13/10 42/15/10 44/14/10
f 29/13/10 69/17/10 42/15/10
f 71/12/56 69/17/56 29/13/56
f 71/12/10 29/13/10 39/12/10
f 71/12/10 39/12/10 76/18/10
f 71/12/10 68/9/10 69/17/10
f 71/12/10 70/10/10 68/9/10
f 71/12/10 32/8/10 70/10/10
f 71/12/10 31/7/10 32/8/10
f 72/16/10 31/7/10 71/12/10
f 31/7/10 72/16/10 62/16/10
f 38/10/57 67/8/58 36/10/57
f 67/8/58 38/10/57 58/8/58
f 41/15/59 69/17/60 52/17/61
f 69/17/61 41/15/59 42/15/59
f 60/16/30 74/12/30 73/16/30
f 74/12/30 60/16/30 56/12/30
f 34/8/62 70/10/63 32/8/64
f 70/10/63 34/8/64 50/10/63
f 61/19/22 66/19/22 73/19/22
f 61/19/22 73/19/22 60/19/22
f 48/19/65 62/19/65 72/19/65
f 48/19/65 72/19/65 47/19/65
