# Blender 4.1.0
# www.blender.org
o 13
v 0.160863 0.083325 -0.627483
v 0.160863 0.083325 -0.000000
v 0.000000 0.083325 -0.627483
v 0.000000 0.083325 -0.000000
v 0.160863 0.000000 0.000000
v 0.000000 0.000000 0.000000
v 0.160863 -0.000000 -0.627483
v 0.000000 -0.000000 -0.627483
v 0.000000 -0.000000 -0.627483
v 0.160863 -0.000000 -0.627483
v 0.000000 0.000000 0.000000
v 0.160863 0.000000 0.000000
vn -0.0000 1.0000 -0.0000
vn -0.0000 -0.0000 1.0000
vn 1.0000 -0.0000 -0.0000
vn -0.0000 -0.0000 -1.0000
vn -1.0000 -0.0000 -0.0000
vt 0.218750 0.225000
vt 0.218750 0.111364
vt 0.000000 0.000000
s 0
f 3/1/1 2/1/1 1/1/1
f 2/1/1 3/1/1 4/1/1
f 2/1/2 6/2/2 5/2/2
f 6/2/2 2/1/2 4/1/2
f 2/1/3 7/2/3 1/1/3
f 7/2/3 2/1/3 5/2/3
f 3/1/4 7/2/4 8/2/4
f 7/2/4 3/1/4 1/1/4
f 6/2/5 3/1/5 8/2/5
f 3/1/5 6/2/5 4/1/5
f 3/1/1 2/1/1 1/1/1
f 2/1/1 3/1/1 4/1/1
f 2/1/2 6/2/2 5/2/2
f 6/2/2 2/1/2 4/1/2
f 2/1/3 7/2/3 1/1/3
f 7/2/3 2/1/3 5/2/3
f 3/1/4 7/2/4 8/2/4
f 7/2/4 3/1/4 1/1/4
f 6/2/5 3/1/5 8/2/5
f 3/1/5 6/2/5 4/1/5
f 12/3/1 10/3/1 9/3/1
f 12/3/1 9/3/1 11/3/1
