# Blender 4.1.0
# www.blender.org
o 16
v -0.091455 -0.000000 -0.631372
v 0.069266 -0.000000 -0.299574
v 0.000000 0.000000 0.000000
v 0.311019 -0.000000 -0.233263
v -0.311018 -0.000000 -0.349897
v 0.205042 0.029628 -0.629715
v -0.405836 0.212429 -0.349897
v 0.007791 0.435520 -0.013817
v 0.001519 0.440421 -0.017532
v -0.001340 0.435748 -0.011862
v 0.005373 0.432790 -0.009329
v 0.003902 0.437373 -0.013378
v 0.389420 0.357034 -0.302128
v 0.387194 0.357788 -0.296688
v 0.390396 0.352242 -0.288042
v 0.396177 0.341129 -0.296850
v 0.393902 0.345821 -0.309608
v 0.236620 0.587378 -0.339251
v 0.129392 0.561508 -0.329155
v 0.063363 0.346464 0.012608
v 0.022199 0.279904 -0.004093
v 0.075483 0.152939 0.021715
v 0.176370 0.184334 -0.037872
v -0.194006 0.282485 -0.652822
v -0.243649 0.299893 -0.598608
v -0.271368 0.333684 -0.582989
v -0.249050 0.373305 -0.565065
v -0.171445 0.397722 -0.597559
v -0.131335 0.367311 -0.675169
v -0.323974 0.372256 -0.242050
v -0.367933 0.313369 -0.221743
v -0.337950 0.286877 -0.193695
v -0.282365 0.303597 -0.120291
v -0.257724 0.349892 -0.113039
v -0.256798 0.388451 -0.112318
v 0.212063 0.349179 -0.556843
v 0.183772 0.254401 -0.696829
v 0.117114 0.271740 -0.704285
v 0.079241 0.353453 -0.709097
v 0.255384 0.302237 -0.122902
v 0.115451 0.320283 -0.011932
v 0.176589 0.185428 -0.038008
v -0.016175 0.555101 -0.136850
v -0.277322 0.380526 -0.205666
v -0.280234 0.379880 -0.210276
v 0.063938 0.434934 -0.584902
v 0.109768 0.359405 -0.659222
vn -0.0000 -1.0000 -0.0000
vn -0.8170 0.5452 -0.1877
vn 0.9220 -0.2800 -0.2674
vn 0.8630 0.1084 -0.4934
vn -0.7861 -0.3509 0.5089
vn 0.7835 -0.0807 0.6161
vn -0.7481 -0.3159 -0.5836
vn 0.2826 0.0548 0.9577
vn -0.7345 -0.3278 -0.5942
vn 0.7490 0.4134 -0.5179
vn 0.5811 0.5001 0.6420
vn -0.3644 -0.0086 0.9312
vn 0.5619 0.5467 -0.6208
vn -0.3533 0.0417 0.9346
vn 0.0996 -0.9939 -0.0482
vn 0.0220 -0.9965 -0.0804
vn 0.0863 0.7257 0.6826
vn 0.8984 0.4364 0.0485
vn 0.0633 0.8380 -0.5420
vn -0.3983 0.9129 -0.0894
vn 0.0336 -0.2830 -0.9585
vn -0.6861 -0.3965 0.6099
vn 0.5600 0.5585 0.6119
vn 0.5552 -0.3791 0.7403
vn -0.5799 0.4122 -0.7027
vn 0.4757 0.6163 -0.6277
vn 0.6263 0.1355 0.7677
vn -0.1662 -0.1345 -0.9769
vn 0.2399 0.8642 0.4423
vn -0.7394 0.4495 0.5012
vn -0.2014 0.9128 -0.3552
vn -0.4856 0.8692 0.0934
vt -2.648997 43.784458
vt -3.123159 43.847206
vt -2.849394 44.198166
vt 43.847206 0.758844
vt 43.687416 0.884701
vt 43.712734 0.958125
vt 44.115490 0.959433
vt 44.137840 0.910031
vt 43.701778 0.493973
vt 44.196098 0.530915
vt 43.796970 0.925165
vt 43.781063 0.919314
vt 44.279781 0.811177
vt 44.105240 0.929351
vt 43.787643 0.939146
vt 43.847206 0.493973
vt 43.652443 0.851669
vt 43.770081 0.933171
vt 43.564175 0.870821
vt 43.458321 0.725177
vt 43.458153 0.723813
vt 44.198166 0.493973
vt 44.157314 0.867899
vt 44.224915 0.846193
vt -2.515180 0.725177
vt -2.591411 0.893322
vt -2.656357 0.925966
vt -2.707683 0.842975
vt -2.641245 0.684666
vt -2.515453 0.723813
vt 43.833931 1.226353
vt 43.780861 0.940086
vt -2.725647 1.037007
vt -2.252585 0.940086
vt -2.440329 1.226353
vt -3.055554 0.978319
vt -3.056708 0.930241
vt -2.728662 1.033602
vt -2.737032 1.037292
vt -2.470948 0.929351
vt -2.506223 0.811177
vt -2.589336 0.832796
vt -2.636559 0.934680
vt -2.598497 0.942102
vt -2.735362 0.493973
vt -3.087432 0.872517
vt -2.479703 44.196098
vt -2.735362 43.410931
vt -2.347564 43.701778
vt -2.725647 43.428162
vt -2.730497 43.427612
vt -2.733468 43.432793
vt -2.737032 43.425724
vt -2.728662 43.422565
vt -2.655640 44.140224
vt -2.598497 44.232891
vt -2.636559 44.295078
vt -2.899118 44.252777
vt -3.139314 43.712734
vt -2.574028 43.821342
vt -3.045893 44.115490
vt -2.479703 0.530915
vt -2.849394 0.493973
vt 43.410931 0.493973
vt 43.560917 0.872517
vt -2.416933 0.870821
vt -2.248592 0.933171
vt -2.347564 0.493973
vt -2.977261 0.846193
vt -3.039159 0.867899
vt -3.073721 0.910031
vt -3.045893 0.959433
vt -2.949130 0.989878
vt -2.899118 0.951959
vt -2.655640 1.036276
vt -2.755529 43.581566
vt -2.440329 43.833931
vt 43.551876 0.930241
vt 43.550980 0.978319
vt 43.667370 0.968437
vt 43.673115 0.967632
vt -2.949130 44.156006
vt -3.084775 43.673115
vt -3.081145 43.667370
vt -3.055554 43.550980
s 1
f 2/1/1 5/2/1 1/3/1
f 7/4/2 31/5/2 30/6/2 27/7/2 26/8/2
f 4/9/3 6/10/3 17/11/3 16/12/3
f 6/10/4 37/13/4 36/14/4 13/15/4 17/11/4
f 7/4/5 5/16/5 32/17/5 31/5/5
f 4/9/6 16/12/6 15/18/6 40/19/6 42/20/6 23/21/6
f 1/22/7 5/16/7 25/23/7 24/24/7
f 42/25/8 41/26/8 20/27/8 21/28/8 22/29/8 23/30/8
f 26/8/9 25/23/9 5/16/9 7/4/9
f 18/31/10 14/32/10 13/15/10 36/14/10
f 8/33/11 14/34/11 18/35/11
f 35/36/12 34/37/12 21/28/12 20/27/12 11/38/12 10/39/12
f 36/40/13 37/41/13 38/42/13 39/43/13 47/44/13
f 3/45/14 22/29/14 21/28/14 34/37/14 33/46/14
f 2/1/15 1/3/15 6/47/15
f 2/1/1 3/48/1 5/2/1
f 4/49/16 2/1/16 6/47/16
f 2/1/1 4/49/1 3/48/1
f 8/50/17 12/51/17 9/52/17 10/53/17 11/54/17
f 13/15/18 14/32/18 15/18/18 16/12/18 17/11/18
f 46/55/19 47/56/19 39/57/19 29/58/19
f 30/59/20 19/60/20 27/61/20
f 6/62/21 1/63/21 38/42/21 37/41/21
f 5/16/22 3/64/22 33/65/22 32/17/22
f 20/27/23 41/26/23 40/66/23 15/67/23 14/34/23 8/33/23 11/38/23
f 3/45/24 4/68/24 23/30/24 22/29/24
f 24/69/25 25/70/25 26/71/25 27/72/25 28/73/25 29/74/25
f 47/44/26 46/75/26 18/35/26 36/40/26
f 40/66/27 41/26/27 42/25/27
f 1/63/28 24/69/28 29/74/28 39/43/28 38/42/28
f 19/60/29 43/76/29 9/52/29 12/51/29 8/50/29 18/77/29
f 30/6/30 31/5/30 32/17/30 33/65/30 34/78/30 35/79/30 44/80/30 45/81/30
f 46/55/31 29/58/31 28/82/31 27/61/31 19/60/31 18/77/31
f 43/76/32 19/60/32 30/59/32 45/83/32 44/84/32 35/85/32 10/53/32 9/52/32
