# Blender 4.1.0
# www.blender.org
o 18
v 0.499950 0.000000 0.799920
v 0.199980 0.000000 0.799920
v 0.499950 0.233310 0.799920
v 0.199980 0.066660 0.799920
v 0.196573 0.092540 0.799920
v 0.186584 0.116655 0.799920
v 0.170694 0.137364 0.799920
v 0.149985 0.153254 0.799920
v 0.125870 0.163243 0.799920
v 0.099990 0.166650 0.799920
v -0.299970 0.233310 0.799920
v 0.074111 0.163243 0.799920
v 0.049995 0.153254 0.799920
v 0.029287 0.137364 0.799920
v 0.013397 0.116655 0.799920
v 0.003407 0.092540 0.799920
v 0.000000 0.066660 0.799920
v -0.299970 0.000000 0.799920
v 0.000000 0.000000 0.799920
v -0.299970 0.000000 0.000000
v -0.299970 0.233310 -0.000000
v 0.499950 0.233310 -0.000000
v 0.499950 0.000000 0.000000
v 0.199980 0.000000 0.000000
v 0.199980 0.066660 -0.000000
v 0.196573 0.092540 -0.000000
v 0.186584 0.116655 -0.000000
v 0.170694 0.137364 -0.000000
v 0.149985 0.153254 -0.000000
v 0.125870 0.163243 -0.000000
v 0.099990 0.166650 -0.000000
v 0.074111 0.163243 -0.000000
v 0.049995 0.153254 -0.000000
v 0.029287 0.137364 -0.000000
v 0.013397 0.116655 -0.000000
v 0.003407 0.092540 -0.000000
v 0.000000 0.066660 -0.000000
v 0.000000 0.000000 0.000000
vn -0.0000 -0.0000 1.0000
vn -1.0000 -0.0000 -0.0000
vn 1.0000 -0.0000 -0.0000
vn -0.9979 -0.0654 -0.0000
vn -0.9660 -0.2585 -0.0000
vn -0.9658 -0.2591 -0.0000
vn -0.8662 -0.4997 -0.0000
vn -0.8659 -0.5003 -0.0000
vn -0.7073 -0.7069 -0.0000
vn -0.7069 -0.7073 -0.0000
vn -0.5003 -0.8659 -0.0000
vn -0.5003 -0.8658 -0.0000
vn -0.4996 -0.8662 -0.0000
vn -0.2591 -0.9658 -0.0000
vn -0.4997 -0.8662 -0.0000
vn -0.0000 1.0000 -0.0000
vn -0.2585 -0.9660 -0.0000
vn -0.0003 -1.0000 -0.0000
vn -0.0004 -1.0000 -0.0000
vn 0.0003 -1.0000 -0.0000
vn 0.2585 -0.9660 -0.0000
vn 0.2591 -0.9658 -0.0000
vn 0.4997 -0.8662 -0.0000
vn 0.2592 -0.9658 -0.0000
vn 0.5003 -0.8658 -0.0000
vn 0.7069 -0.7073 -0.0000
vn 0.7073 -0.7069 -0.0000
vn 0.8659 -0.5003 -0.0000
vn 0.9660 -0.2585 -0.0000
vn 0.9979 -0.0654 -0.0000
vn 0.8662 -0.4997 -0.0000
vn 0.9658 -0.2592 -0.0000
vn 0.9658 -0.2591 -0.0000
vn -0.0000 -0.0000 -1.0000
vn -0.0000 -1.0000 -0.0000
vt 0.093750 0.475000
vt 0.093750 0.275000
vt 0.093750 0.332143
vt 0.093750 0.354327
vt 0.093750 0.375000
vt 0.093750 0.392752
vt 0.093750 0.406374
vt 0.093750 0.414937
vt 0.093750 0.417857
vt 0.000000 0.000000
s 0
f 3/1/1 2/2/1 1/2/1
f 2/2/1 3/1/1 4/3/1
f 4/3/1 3/1/1 5/4/1
f 5/4/1 3/1/1 6/5/1
f 6/5/1 3/1/1 7/6/1
f 7/6/1 3/1/1 8/7/1
f 8/7/1 3/1/1 9/8/1
f 9/8/1 3/1/1 10/9/1
f 11/1/1 10/9/1 3/1/1
f 11/1/1 12/8/1 10/9/1
f 11/1/1 13/7/1 12/8/1
f 11/1/1 14/6/1 13/7/1
f 11/1/1 15/5/1 14/6/1
f 11/1/1 16/4/1 15/5/1
f 11/1/1 17/3/1 16/4/1
f 18/2/1 17/3/1 11/1/1
f 17/3/1 18/2/1 19/2/1
f 18/2/2 21/1/2 20/2/2
f 21/1/2 18/2/2 11/1/2
f 3/1/3 23/2/3 22/1/3
f 23/2/3 3/1/3 1/2/3
f 2/2/2 25/3/4 24/2/2
f 25/3/4 2/2/2 4/3/4
f 4/3/4 26/4/5 25/3/4
f 26/4/5 4/3/4 5/4/5
f 5/4/6 27/5/7 26/4/6
f 27/5/7 5/4/6 6/5/7
f 6/5/8 28/6/9 27/5/8
f 28/6/9 6/5/8 7/6/9
f 7/6/10 29/7/11 28/6/10
f 29/7/12 7/6/10 8/7/12
f 8/7/13 30/8/14 29/7/13
f 30/8/14 8/7/15 9/8/14
f 21/1/16 3/1/16 22/1/16
f 3/1/16 21/1/16 11/1/16
f 9/8/17 31/9/18 30/8/17
f 31/9/19 9/8/17 10/9/19
f 10/9/20 32/8/21 31/9/20
f 32/8/21 10/9/20 12/8/21
f 12/8/22 33/7/23 32/8/22
f 33/7/23 12/8/24 13/7/23
f 13/7/25 34/6/26 33/7/25
f 34/6/26 13/7/25 14/6/26
f 14/6/27 35/5/28 34/6/27
f 35/5/28 14/6/27 15/5/28
f 16/4/29 37/3/30 36/4/29
f 37/3/30 16/4/29 17/3/30
f 15/5/31 36/4/32 35/5/31
f 36/4/33 15/5/31 16/4/33
f 37/3/30 19/2/3 38/2/3
f 19/2/3 37/3/30 17/3/30
f 21/1/34 38/2/34 20/2/34
f 38/2/34 21/1/34 37/3/34
f 37/3/34 21/1/34 36/4/34
f 36/4/34 21/1/34 35/5/34
f 35/5/34 21/1/34 34/6/34
f 34/6/34 21/1/34 33/7/34
f 33/7/34 21/1/34 32/8/34
f 32/8/34 21/1/34 31/9/34
f 22/1/34 31/9/34 21/1/34
f 22/1/34 30/8/34 31/9/34
f 22/1/34 29/7/34 30/8/34
f 22/1/34 28/6/34 29/7/34
f 22/1/34 27/5/34 28/6/34
f 22/1/34 26/4/34 27/5/34
f 22/1/34 25/3/34 26/4/34
f 23/2/34 25/3/34 22/1/34
f 25/3/34 23/2/34 24/2/34
f 3/1/1 2/2/1 1/2/1
f 2/2/1 3/1/1 4/3/1
f 4/3/1 3/1/1 5/4/1
f 5/4/1 3/1/1 6/5/1
f 6/5/1 3/1/1 7/6/1
f 7/6/1 3/1/1 8/7/1
f 8/7/1 3/1/1 9/8/1
f 9/8/1 3/1/1 10/9/1
f 11/1/1 10/9/1 3/1/1
f 11/1/1 12/8/1 10/9/1
f 11/1/1 13/7/1 12/8/1
f 11/1/1 14/6/1 13/7/1
f 11/1/1 15/5/1 14/6/1
f 11/1/1 16/4/1 15/5/1
f 11/1/1 17/3/1 16/4/1
f 18/2/1 17/3/1 11/1/1
f 17/3/1 18/2/1 19/2/1
f 18/2/2 21/1/2 20/2/2
f 21/1/2 18/2/2 11/1/2
f 3/1/3 23/2/3 22/1/3
f 23/2/3 3/1/3 1/2/3
f 2/2/2 25/3/4 24/2/2
f 25/3/4 2/2/2 4/3/4
f 4/3/4 26/4/5 25/3/4
f 26/4/5 4/3/4 5/4/5
f 5/4/6 27/5/7 26/4/6
f 27/5/7 5/4/6 6/5/7
f 6/5/8 28/6/9 27/5/8
f 28/6/9 6/5/8 7/6/9
f 7/6/10 29/7/11 28/6/10
f 29/7/12 7/6/10 8/7/12
f 8/7/13 30/8/14 29/7/13
f 30/8/14 8/7/15 9/8/14
f 21/1/16 3/1/16 22/1/16
f 3/1/16 21/1/16 11/1/16
f 9/8/17 31/9/18 30/8/17
f 31/9/19 9/8/17 10/9/19
f 10/9/20 32/8/21 31/9/20
f 32/8/21 10/9/20 12/8/21
f 12/8/22 33/7/23 32/8/22
f 33/7/23 12/8/24 13/7/23
f 13/7/25 34/6/26 33/7/25
f 34/6/26 13/7/25 14/6/26
f 14/6/27 35/5/28 34/6/27
f 35/5/28 14/6/27 15/5/28
f 16/4/29 37/3/30 36/4/29
f 37/3/30 16/4/29 17/3/30
f 15/5/31 36/4/32 35/5/31
f 36/4/33 15/5/31 16/4/33
f 37/3/30 19/2/3 38/2/3
f 19/2/3 37/3/30 17/3/30
f 21/1/34 38/2/34 20/2/34
f 38/2/34 21/1/34 37/3/34
f 37/3/34 21/1/34 36/4/34
f 36/4/34 21/1/34 35/5/34
f 35/5/34 21/1/34 34/6/34
f 34/6/34 21/1/34 33/7/34
f 33/7/34 21/1/34 32/8/34
f 32/8/34 21/1/34 31/9/34
f 22/1/34 31/9/34 21/1/34
f 22/1/34 30/8/34 31/9/34
f 22/1/34 29/7/34 30/8/34
f 22/1/34 28/6/34 29/7/34
f 22/1/34 27/5/34 28/6/34
f 22/1/34 26/4/34 27/5/34
f 22/1/34 25/3/34 26/4/34
f 23/2/34 25/3/34 22/1/34
f 25/3/34 23/2/34 24/2/34
f 18/10/35 20/10/35 38/10/35
f 18/10/35 38/10/35 19/10/35
f 2/10/35 24/10/35 23/10/35
f 2/10/35 23/10/35 1/10/35
