# Blender 4.1.0
# www.blender.org
mtllib 2.mtl
o 2
v 0.020898 -0.000260 -0.014057
v 0.020898 2.170936 -0.014057
v 0.020608 -0.000260 -0.011095
v 0.020608 2.170936 -0.011095
v 0.019738 -0.000260 -0.008247
v 0.019738 2.170936 -0.008247
v 0.018342 -0.000260 -0.005624
v 0.018342 2.170936 -0.005624
v 0.016450 -0.000260 -0.003322
v 0.016450 2.170936 -0.003322
v 0.014146 -0.000260 -0.001434
v 0.014146 2.170936 -0.001434
v 0.011521 -0.000260 -0.000030
v 0.011521 2.170936 -0.000030
v 0.008672 -0.000260 0.000834
v 0.008672 2.170936 0.000834
v 0.005708 -0.000260 0.001126
v 0.005708 2.170936 0.001126
v 0.002752 -0.000260 0.000834
v 0.002752 2.170936 0.000834
v -0.000098 -0.000260 -0.000030
v -0.000098 2.170936 -0.000030
v -0.002730 -0.000260 -0.001434
v -0.002730 2.170936 -0.001434
v -0.005026 -0.000260 -0.003320
v -0.005026 2.170936 -0.003320
v -0.006911 -0.000260 -0.005622
v -0.006911 2.170936 -0.005622
v -0.008315 -0.000260 -0.008247
v -0.008315 2.170936 -0.008247
v -0.009181 -0.000260 -0.011093
v -0.009181 2.170936 -0.011093
v -0.009474 -0.000260 -0.014057
v -0.009474 2.170936 -0.014057
v -0.009181 -0.000260 -0.017019
v -0.009181 2.170936 -0.017019
v -0.008317 -0.000260 -0.019866
v -0.008317 2.170936 -0.019866
v -0.006913 -0.000260 -0.022493
v -0.006913 2.170936 -0.022493
v -0.005029 -0.000260 -0.024795
v -0.005029 2.170936 -0.024795
v -0.002732 -0.000260 -0.026683
v -0.002732 2.170936 -0.026683
v -0.000100 -0.000260 -0.028085
v -0.000100 2.170936 -0.028085
v 0.002749 -0.000260 -0.028949
v 0.002749 2.170936 -0.028949
v 0.005706 -0.000260 -0.029243
v 0.005706 2.170936 -0.029243
v 0.008670 -0.000260 -0.028949
v 0.008670 2.170936 -0.028949
v 0.011520 -0.000260 -0.028085
v 0.011520 2.170936 -0.028085
v 0.014144 -0.000260 -0.026683
v 0.014144 2.170936 -0.026683
v 0.016448 -0.000260 -0.024795
v 0.016448 2.170936 -0.024795
v 0.018340 -0.000260 -0.022495
v 0.018340 2.170936 -0.022495
v 0.019736 -0.000260 -0.019866
v 0.019736 2.170936 -0.019866
v 0.020608 -0.000260 -0.017021
v 0.020608 2.170936 -0.017021
v 0.005706 1.829800 -0.008104
v 0.005708 1.961629 0.390608
v 0.005706 2.138109 -0.008104
v 0.013620 0.006598 -0.014057
v 0.013620 2.164078 -0.014057
v 0.013467 0.006594 -0.012519
v 0.013467 2.164082 -0.012519
v 0.013017 0.006600 -0.011032
v 0.013017 2.164075 -0.011032
v 0.012286 0.006594 -0.009667
v 0.012286 2.164081 -0.009667
v 0.011307 0.006596 -0.008473
v 0.011307 2.164079 -0.008473
v 0.010104 0.006597 -0.007486
v 0.010104 2.164078 -0.007486
v 0.008735 0.006596 -0.006755
v 0.008735 2.164080 -0.006755
v 0.007253 0.006596 -0.006305
v 0.007253 2.164079 -0.006305
v 0.005709 0.006596 -0.006154
v 0.005709 2.164079 -0.006154
v 0.004172 0.006597 -0.006304
v 0.004172 2.164079 -0.006304
v 0.002684 0.006597 -0.006755
v 0.002684 2.164078 -0.006755
v 0.001313 0.006595 -0.007488
v 0.001313 2.164081 -0.007488
v 0.000126 0.006595 -0.008463
v 0.000126 2.164080 -0.008463
v -0.000858 0.006598 -0.009662
v -0.000858 2.164077 -0.009662
v -0.001592 0.006597 -0.011036
v -0.001592 2.164078 -0.011036
v -0.002042 0.006596 -0.012518
v -0.002042 2.164079 -0.012518
v -0.002194 0.006595 -0.014057
v -0.002195 2.164080 -0.014057
v -0.002043 0.006597 -0.015596
v -0.002043 2.164078 -0.015596
v -0.001592 0.006596 -0.017081
v -0.001592 2.164079 -0.017081
v -0.000859 0.006598 -0.018454
v -0.000859 2.164078 -0.018454
v 0.000124 0.006596 -0.019654
v 0.000124 2.164080 -0.019654
v 0.001311 0.006594 -0.020628
v 0.001311 2.164082 -0.020628
v 0.002679 0.006598 -0.021360
v 0.002679 2.164078 -0.021360
v 0.004172 0.006597 -0.021812
v 0.004172 2.164078 -0.021812
v 0.005707 0.006595 -0.021963
v 0.005707 2.164081 -0.021963
v 0.007248 0.006597 -0.021811
v 0.007248 2.164078 -0.021811
v 0.008736 0.006597 -0.021360
v 0.008736 2.164079 -0.021360
v 0.010103 0.006597 -0.020629
v 0.010103 2.164079 -0.020629
v 0.011306 0.006597 -0.019644
v 0.011306 2.164079 -0.019644
v 0.012282 0.006593 -0.018453
v 0.012282 2.164083 -0.018453
v 0.013017 0.006602 -0.017083
v 0.013017 2.164073 -0.017083
v 0.013467 0.006593 -0.015593
v 0.013467 2.164083 -0.015593
v 0.015706 1.829800 -0.008104
v 0.015708 1.961629 0.390608
v 0.015706 2.138109 -0.008104
vn 0.9952 -0.0000 0.0974
vn 0.9564 -0.0000 0.2921
vn 0.8828 -0.0000 0.4698
vn 0.7727 -0.0000 0.6348
vn 0.6339 -0.0000 0.7734
vn 0.4716 -0.0000 0.8818
vn 0.2902 -0.0000 0.9570
vn 0.0980 -0.0000 0.9952
vn -0.0982 -0.0000 0.9952
vn -0.2901 -0.0000 0.9570
vn -0.4706 -0.0000 0.8824
vn -0.6347 -0.0000 0.7727
vn -0.7737 -0.0000 0.6335
vn -0.8818 -0.0000 0.4716
vn -0.9567 -0.0000 0.2911
vn -0.9951 -0.0000 0.0987
vn -0.9951 -0.0000 -0.0985
vn -0.9569 -0.0000 -0.2904
vn -0.8820 -0.0000 -0.4713
vn -0.7739 -0.0000 -0.6333
vn -0.6349 -0.0000 -0.7726
vn -0.4701 -0.0000 -0.8826
vn -0.2902 -0.0000 -0.9570
vn -0.0990 -0.0000 -0.9951
vn 0.0988 -0.0000 -0.9951
vn 0.2901 -0.0000 -0.9570
vn 0.4712 -0.0000 -0.8820
vn 0.6338 -0.0000 -0.7735
vn 0.7723 -0.0000 -0.6352
vn 0.8832 -0.0000 -0.4690
vn -0.0000 1.0000 -0.0000
vn 0.9561 -0.0000 -0.2931
vn 0.9953 -0.0000 -0.0973
vn -0.0000 -1.0000 -0.0000
vn -1.0000 -0.0000 -0.0000
vn -0.9951 -0.0000 -0.0990
vn -0.9571 -0.0000 -0.2896
vn -0.8816 -0.0000 -0.4720
vn -0.7733 -0.0000 -0.6340
vn -0.6343 -0.0000 -0.7731
vn -0.4710 -0.0000 -0.8821
vn -0.2906 -0.0000 -0.9568
vn -0.0975 -0.0000 -0.9952
vn 0.0977 -0.0000 -0.9952
vn 0.4715 -0.0000 -0.8819
vn 0.6347 -0.0000 -0.7727
vn 0.7731 -0.0000 -0.6343
vn 0.8820 -0.0000 -0.4713
vn 0.9568 -0.0000 -0.2908
vn 0.9952 -0.0000 -0.0979
vn 0.9952 -0.0000 0.0975
vn 0.9568 -0.0000 0.2909
vn 0.8824 -0.0000 0.4705
vn 0.7735 -0.0000 0.6338
vn 0.6345 -0.0000 0.7730
vn 0.4713 -0.0000 0.8820
vn 0.2898 -0.0000 0.9571
vn -0.4711 -0.0000 0.8821
vn -0.6333 -0.0000 0.7739
vn -0.7737 -0.0000 0.6336
vn -0.8812 -0.0000 0.4728
vn -0.9573 -0.0000 0.2890
vn -0.9951 -0.0000 0.0992
vn 1.0000 -0.0000 -0.0000
vn -0.0000 -0.0000 -1.0000
vn -0.0000 -0.9494 0.3139
vn -0.0000 0.9144 0.4047
vt 0.063279 0.021681
vt 0.063279 0.890337
vt 0.062094 0.890337
vt 0.062094 0.021681
vt 0.060954 0.890337
vt 0.060954 0.021681
vt 0.059905 0.890337
vt 0.059905 0.021681
vt 0.058983 0.890337
vt 0.058983 0.021681
vt 0.058228 0.890337
vt 0.058228 0.021681
vt 0.057666 0.890337
vt 0.057666 0.021681
vt 0.057321 0.890337
vt 0.057321 0.021681
vt 0.057204 0.890337
vt 0.057204 0.021681
vt 0.059904 0.890337
vt 0.059904 0.021681
vt 0.062093 0.890337
vt 0.062093 0.021681
vt 0.064463 0.890337
vt 0.064463 0.021681
vt 0.065603 0.890337
vt 0.065603 0.021681
vt 0.066654 0.890337
vt 0.066654 0.021681
vt 0.067575 0.890337
vt 0.067575 0.021681
vt 0.068330 0.890337
vt 0.068330 0.021681
vt 0.068891 0.890337
vt 0.068891 0.021681
vt 0.069237 0.890337
vt 0.069237 0.021681
vt 0.069354 0.890337
vt 0.069354 0.021681
vt 0.066655 0.890337
vt 0.066655 0.021681
vt 0.064464 0.890337
vt 0.064464 0.021681
vt 0.114065 0.044750
vt 0.012159 0.078444
vt 0.114065 0.123550
s 1
f 1/1/1 2/2/1 4/3/1 3/4/1
f 3/4/2 4/3/2 6/5/2 5/6/2
f 5/6/3 6/5/3 8/7/3 7/8/3
f 7/8/4 8/7/4 10/9/4 9/10/4
f 9/10/5 10/9/5 12/11/5 11/12/5
f 11/12/6 12/11/6 14/13/6 13/14/6
f 13/14/7 14/13/7 16/15/7 15/16/7
f 15/16/8 16/15/8 18/17/8 17/18/8
f 17/18/9 18/17/9 20/15/9 19/16/9
f 19/16/10 20/15/10 22/13/10 21/14/10
f 21/14/11 22/13/11 24/11/11 23/12/11
f 23/12/12 24/11/12 26/9/12 25/10/12
f 25/10/13 26/9/13 28/19/13 27/20/13
f 27/20/14 28/19/14 30/5/14 29/6/14
f 29/6/15 30/5/15 32/21/15 31/22/15
f 31/22/16 32/21/16 34/2/16 33/1/16
f 33/1/17 34/2/17 36/23/17 35/24/17
f 35/24/18 36/23/18 38/25/18 37/26/18
f 37/26/19 38/25/19 40/27/19 39/28/19
f 39/28/20 40/27/20 42/29/20 41/30/20
f 41/30/21 42/29/21 44/31/21 43/32/21
f 43/32/22 44/31/22 46/33/22 45/34/22
f 45/34/23 46/33/23 48/35/23 47/36/23
f 47/36/24 48/35/24 50/37/24 49/38/24
f 49/38/25 50/37/25 52/35/25 51/36/25
f 51/36/26 52/35/26 54/33/26 53/34/26
f 53/34/27 54/33/27 56/31/27 55/32/27
f 55/32/28 56/31/28 58/29/28 57/30/28
f 57/30/29 58/29/29 60/39/29 59/40/29
f 59/40/30 60/39/30 62/25/30 61/26/30
f 4/3/31 2/2/31 64/41/31 62/25/31 60/39/31 58/29/31 56/31/31 54/33/31 52/35/31 50/37/31 48/35/31 46/33/31 44/31/31 42/29/31 40/27/31 38/25/31 36/23/31 34/2/31 32/21/31 30/5/31 28/19/31 26/9/31 24/11/31 22/13/31 20/15/31 18/17/31 16/15/31 14/13/31 12/11/31 10/9/31 8/7/31 6/5/31
f 61/26/32 62/25/32 64/41/32 63/42/32
f 63/42/33 64/41/33 2/2/33 1/1/33
f 1/1/34 3/4/34 5/6/34 7/8/34 9/10/34 11/12/34 13/14/34 15/16/34 17/18/34 19/16/34 21/14/34 23/12/34 25/10/34 27/20/34 29/6/34 31/22/34 33/1/34 35/24/34 37/26/34 39/28/34 41/30/34 43/32/34 45/34/34 47/36/34 49/38/34 51/36/34 53/34/34 55/32/34 57/30/34 59/40/34 61/26/34 63/42/34
f 65/43/35 66/44/35 67/45/35
f 68/1/36 70/4/36 71/3/36 69/2/36
f 70/4/37 72/6/37 73/5/37 71/3/37
f 72/6/38 74/8/38 75/7/38 73/5/38
f 74/8/39 76/10/39 77/9/39 75/7/39
f 76/10/40 78/12/40 79/11/40 77/9/40
f 78/12/41 80/14/41 81/13/41 79/11/41
f 80/14/42 82/16/42 83/15/42 81/13/42
f 82/16/43 84/18/43 85/17/43 83/15/43
f 84/18/44 86/16/44 87/15/44 85/17/44
f 86/16/26 88/14/26 89/13/26 87/15/26
f 88/14/45 90/12/45 91/11/45 89/13/45
f 90/12/46 92/10/46 93/9/46 91/11/46
f 92/10/47 94/20/47 95/19/47 93/9/47
f 94/20/48 96/6/48 97/5/48 95/19/48
f 96/6/49 98/22/49 99/21/49 97/5/49
f 98/22/50 100/1/50 101/2/50 99/21/50
f 100/1/51 102/24/51 103/23/51 101/2/51
f 102/24/52 104/26/52 105/25/52 103/23/52
f 104/26/53 106/28/53 107/27/53 105/25/53
f 106/28/54 108/30/54 109/29/54 107/27/54
f 108/30/55 110/32/55 111/31/55 109/29/55
f 110/32/56 112/34/56 113/33/56 111/31/56
f 112/34/57 114/36/57 115/35/57 113/33/57
f 114/36/8 116/38/8 117/37/8 115/35/8
f 116/38/9 118/36/9 119/35/9 117/37/9
f 118/36/10 120/34/10 121/33/10 119/35/10
f 120/34/58 122/32/58 123/31/58 121/33/58
f 122/32/59 124/30/59 125/29/59 123/31/59
f 124/30/60 126/40/60 127/39/60 125/29/60
f 126/40/61 128/26/61 129/25/61 127/39/61
f 71/3/34 73/5/34 75/7/34 77/9/34 79/11/34 81/13/34 83/15/34 85/17/34 87/15/34 89/13/34 91/11/34 93/9/34 95/19/34 97/5/34 99/21/34 101/2/34 103/23/34 105/25/34 107/27/34 109/29/34 111/31/34 113/33/34 115/35/34 117/37/34 119/35/34 121/33/34 123/31/34 125/29/34 127/39/34 129/25/34 131/41/34 69/2/34
f 128/26/62 130/42/62 131/41/62 129/25/62
f 130/42/63 68/1/63 69/2/63 131/41/63
f 68/1/31 130/42/31 128/26/31 126/40/31 124/30/31 122/32/31 120/34/31 118/36/31 116/38/31 114/36/31 112/34/31 110/32/31 108/30/31 106/28/31 104/26/31 102/24/31 100/1/31 98/22/31 96/6/31 94/20/31 92/10/31 90/12/31 88/14/31 86/16/31 84/18/31 82/16/31 80/14/31 78/12/31 76/10/31 74/8/31 72/6/31 70/4/31
f 132/43/64 134/45/64 133/44/64
f 65/43/65 67/45/65 134/45/65 132/43/65
f 66/44/66 65/43/66 132/43/66 133/44/66
f 67/45/67 66/44/67 133/44/67 134/45/67
