# Blender 4.1.0
# www.blender.org
o 3
v -1.327446 -0.091796 -1.340981
v -1.327446 0.213208 -1.340981
v 0.030193 -0.091796 -2.698631
v 0.030193 0.213208 -2.698631
v 0.030205 -0.091796 0.016661
v 0.030205 0.213208 0.016661
v -1.016261 -0.091796 -1.340982
v -0.125398 -0.091796 -2.231853
v -0.125390 -0.091796 -0.450117
v -1.016261 0.213208 -1.340982
v -0.125398 0.213208 -2.231853
v -0.125390 0.213208 -0.450117
vn -0.7071 -0.0000 -0.7071
vn -0.7071 -0.0000 0.7071
vn -0.0000 -1.0000 -0.0000
vn 0.7071 -0.0000 0.7071
vn -0.0000 1.0000 -0.0000
vn 0.7071 -0.0000 -0.7071
vn 1.0000 -0.0000 -0.0000
vn -1.0000 -0.0000 -0.0000
vt 0.375000 0.000000
vt 0.625000 0.000000
vt 0.625000 0.250000
vt 0.375000 0.250000
vt 0.375000 0.750000
vt 0.625000 0.750000
vt 0.625000 1.000000
vt 0.375000 1.000000
vt 0.125000 0.500000
vt 0.125000 0.750000
vt 0.153651 0.721349
vt 0.317698 0.721349
vt 0.153651 0.557302
vt 0.846349 0.557302
vt 0.846349 0.721349
vt 0.875000 0.750000
vt 0.875000 0.500000
vt 0.682302 0.721349
s 1
f 1/1/1 2/2/1 4/3/1 3/4/1
f 5/5/2 6/6/2 2/7/2 1/8/2
f 3/9/3 5/5/3 1/10/3 7/11/3 9/12/3 8/13/3
f 8/13/4 11/14/4 10/15/4 7/11/4
f 1/10/3 3/9/3 8/13/3 7/11/3
f 10/15/5 2/16/5 6/6/5 4/17/5 11/14/5 12/18/5
f 2/16/5 10/15/5 11/14/5 4/17/5
f 9/12/6 7/11/6 10/15/6 12/18/6
f 4/3/7 6/6/7 5/5/7 3/4/7
f 9/12/8 12/18/8 11/14/8 8/13/8
