# Blender 4.1.0
# www.blender.org
o 6
v -0.024894 0.252519 -0.470806
v -0.766473 0.252519 -0.830662
v -0.215757 0.252519 -1.021523
v -0.575611 0.252519 -0.279942
v -0.395684 0.252519 -0.650734
v -0.488150 0.252519 -0.460182
v -0.303217 0.252519 -0.841286
v -0.586236 0.252519 -0.743198
v -0.537000 0.252519 -0.601757
v -0.444660 0.252519 -0.792049
v -0.205131 0.252519 -0.558266
v -0.346708 0.252519 -0.509418
v -0.254368 0.252519 -0.699707
v 0.346913 -0.000000 -0.290386
v -1.138280 -0.000000 -1.011082
v -0.024385 -0.000000 -0.470558
v -0.756031 -0.103589 0.091862
v -0.756031 -0.103589 0.091862
v -0.395684 -0.103589 -0.650734
v -0.395684 -0.103589 -0.650734
v -0.215510 -0.000000 -1.022030
v -0.575857 -0.000000 -0.279434
v -0.204559 -0.000000 -0.099262
v -0.575857 -0.000000 -0.279434
v 0.155788 -0.000000 -0.841858
v -0.215510 -0.000000 -1.022030
v -0.035336 -0.103589 -1.393330
v -0.766982 -0.000000 -0.830906
v -0.947156 -0.000000 -0.459610
v -0.586808 -0.000000 -1.202206
v -0.773182 0.252519 -0.604866
v -0.816037 0.252519 -0.728519
v -0.074457 0.252519 -0.368668
v -0.198113 0.252519 -0.325809
v -0.018186 0.252519 -0.696602
v 0.024670 0.252519 -0.572945
v -0.716910 0.252519 -0.932800
v -0.593254 0.252519 -0.975655
v -0.441552 0.252519 -1.028233
v -0.317896 0.252519 -1.071087
v -0.677750 0.252519 -0.329506
v -0.720606 0.252519 -0.453163
v -0.349816 0.252519 -0.273235
v -0.473471 0.252519 -0.230381
v -0.113617 0.252519 -0.971958
v -0.070762 0.252519 -0.848305
v 0.000000 0.000000 0.000000
v 0.247650 -0.000000 -0.085827
v -0.791367 -0.000000 -1.301468
v -1.039017 -0.000000 -1.215641
v 0.255051 -0.000000 -1.046417
v 0.169223 -0.000000 -1.294067
v -1.237543 -0.000000 -0.806522
v -1.151715 -0.000000 -0.558872
v 0.446176 -0.000000 -0.494946
v 0.360347 -0.000000 -0.742596
v -1.046419 -0.000000 -0.255051
v -0.960590 0.000000 -0.007401
v -0.239895 -0.000000 -1.492592
v -0.487545 -0.000000 -1.406765
v -0.551472 0.000000 0.191128
v -0.303822 0.000000 0.105297
vn 0.5083 0.5823 -0.6345
vn -0.0000 1.0000 -0.0000
vn 0.7919 0.5823 0.1839
vn -0.1839 0.5823 0.7919
vn 0.6345 0.5823 0.5083
vn -0.7919 0.5823 -0.1839
vn -0.6345 0.5823 -0.5083
vn -0.5083 0.5823 0.6345
vn 0.1839 0.5823 -0.7919
vn 0.1651 -0.9846 -0.0572
vn 0.0572 -0.9846 0.1651
vn -0.0000 -1.0000 -0.0000
vn 0.0001 1.0000 -0.0000
vn -0.0001 1.0000 -0.0000
vn -0.0000 -0.0000 1.0000
vn 0.1572 -0.9875 -0.0081
vn -0.1651 -0.9846 0.0572
vn -0.0572 -0.9846 -0.1651
vn -0.1572 -0.9875 0.0081
vn -0.0909 -0.9875 -0.1285
vn 0.0909 -0.9875 0.1285
vn 0.4691 0.8533 0.2276
vn 0.2681 0.7892 -0.5525
vn -0.0509 0.7674 0.6391
vn -0.5300 0.8279 0.1837
vn -0.1837 0.8279 -0.5300
vn 0.1837 0.8279 0.5300
vn 0.5300 0.8279 -0.1837
vn -0.4705 0.7674 0.4355
vn -0.4691 0.8533 -0.2276
vt 0.829953 0.923775
vt 1.789524 0.310249
vt 2.500323 0.310249
vt 1.498462 0.923775
vt 0.168730 0.814029
vt 0.499342 1.145544
vt 0.499342 1.771830
vt 0.144429 1.771830
vt -0.144866 1.482535
vt 1.416263 0.923775
vt 2.418123 0.310249
vt 1.707324 0.310249
vt 0.747757 0.923775
vt 0.144429 -0.805000
vt 0.499342 -0.805000
vt 0.499342 -0.178716
vt 0.168730 0.152805
vt -0.144866 -0.515705
vt 0.086533 0.923775
vt -0.873040 0.310249
vt -1.583838 0.310249
vt -0.581977 0.923775
vt -0.162788 0.483414
vt 0.499342 0.483414
vt 1.161472 0.483414
vt 0.829953 0.814029
vt 0.829953 0.152805
vt 0.168730 0.923775
vt -0.790840 0.310249
vt -1.501638 0.310249
vt -0.499779 0.923775
vt -0.790840 -0.806768
vt -0.790840 0.483414
vt 0.499342 -0.806768
vt -0.790840 1.773596
vt 0.499342 1.773596
vt -2.081022 -0.227384
vt -2.081022 0.483414
vt -1.501638 -0.806768
vt 1.789524 0.483414
vt 1.789524 1.773596
vt 2.500323 1.773596
vt 3.079706 1.194212
vt 3.079706 0.483414
vt 0.499342 3.063778
vt -0.790840 2.484395
vt -0.211456 3.063778
vt 1.789524 -0.806768
vt 0.499342 -2.096950
vt 1.789524 -1.517566
vt 1.210141 -2.096950
vt 3.079706 -0.227384
vt 2.500323 -0.806768
vt 1.210141 3.063778
vt 1.789524 2.484395
vt 1.787757 0.483415
vt 1.787757 0.838327
vt 1.498462 1.127622
vt 1.498462 -0.160793
vt 1.787757 0.128502
vt -0.211456 -2.096950
vt -0.790840 -1.517566
vt 1.143549 1.482535
vt 0.854254 1.771830
vt 0.854254 -0.805000
vt 1.143549 -0.515705
vt -0.499779 -0.160793
vt -0.789074 0.483415
vt -0.789074 0.128502
vt -0.789074 0.838327
vt -2.081022 1.194212
vt -1.501638 1.773596
vt -0.499779 1.127622
s 1
f 10/1/1 30/2/1 49/3/1 38/4/1
f 12/5/2 6/6/2 4/7/2 44/8/2 43/9/2
f 43/10/3 62/11/3 23/12/3 12/13/3
f 45/14/2 3/15/2 7/16/2 13/17/2 46/18/2
f 31/4/4 54/3/4 29/2/4 9/1/4
f 13/19/5 25/20/5 51/21/5 46/22/5
f 6/6/2 12/5/2 11/23/2 5/24/2
f 39/22/6 60/21/6 30/20/6 10/19/6
f 5/24/2 8/25/2 9/26/2 6/6/2
f 7/16/2 10/27/2 8/25/2 5/24/2
f 9/13/7 29/12/7 57/11/7 42/10/7
f 12/28/8 23/29/8 47/30/8 34/31/8
f 35/31/9 56/30/9 25/29/9 13/28/9
f 25/32/10 16/33/10 20/24/10 21/34/10
f 16/33/11 23/35/11 22/36/11 20/24/11
f 55/37/12 14/38/12 16/33/12 25/32/12 56/39/12
f 28/40/12 29/41/12 54/42/12 53/43/12 15/44/12
f 20/24/2 22/36/13 24/36/14 19/24/2
f 21/34/13 20/24/2 19/24/2 26/34/15
f 22/36/13 18/45/15 17/45/2 24/36/14
f 23/35/16 62/46/16 61/47/16 18/45/16 22/36/16
f 19/24/17 24/36/17 29/41/17 28/40/17
f 26/34/18 19/24/18 28/40/18 30/48/18
f 27/49/19 26/34/19 30/48/19 60/50/19 59/51/19
f 30/48/12 28/40/12 15/44/12 50/52/12 49/53/12
f 24/36/20 17/45/20 58/54/20 57/55/20 29/41/20
f 8/25/2 2/56/2 32/57/2 31/58/2 9/26/2
f 10/27/2 38/59/2 37/60/2 2/56/2 8/25/2
f 27/49/21 52/61/21 51/62/21 25/32/21 21/34/21 26/34/21
f 6/6/2 9/26/2 42/63/2 41/64/2 4/7/2
f 3/15/2 40/65/2 39/66/2 10/27/2 7/16/2
f 35/67/2 13/17/2 11/23/2 1/68/2 36/69/2
f 33/70/22 48/71/22 14/38/22 55/37/22 36/69/22 1/68/22
f 45/14/23 52/61/23 27/49/23 59/51/23 40/65/23 3/15/23
f 41/64/24 58/54/24 17/45/24 4/7/24
f 14/38/12 48/71/12 47/72/12 23/35/12 16/33/12
f 1/68/2 11/23/2 12/5/2 34/73/2 33/70/2
f 31/58/25 32/57/25 53/43/25 54/42/25
f 49/53/26 50/52/26 37/60/26 38/59/26
f 61/47/27 62/46/27 43/9/27 44/8/27
f 57/55/25 58/54/25 41/64/25 42/63/25
f 33/70/27 34/73/27 47/72/27 48/71/27
f 39/66/26 40/65/26 59/51/26 60/50/26
f 51/62/28 52/61/28 45/14/28 46/18/28
f 35/67/28 36/69/28 55/37/28 56/39/28
f 5/24/2 11/23/2 13/17/2 7/16/2
f 4/7/29 17/45/29 18/45/29 61/47/29 44/8/29
f 2/56/30 37/60/30 50/52/30 15/44/30 53/43/30 32/57/30
