# Blender 4.1.0
# www.blender.org
o 8
v -0.047826 -0.000000 -0.014507
v -0.047826 0.693440 -0.006352
v -0.031032 -0.000000 -0.012854
v -0.032623 0.693440 -0.004854
v -0.014883 -0.000000 -0.007955
v -0.018004 0.693440 -0.000420
v 0.000000 0.000000 0.000000
v -0.004532 0.693440 0.006782
v 0.013045 0.000000 0.010706
v 0.007278 0.693440 0.016474
v 0.023751 0.000000 0.023751
v 0.016969 0.693440 0.028282
v 0.031706 0.000000 0.038635
v 0.024171 0.693440 0.041756
v 0.036604 0.000000 0.054783
v 0.028605 0.693440 0.056374
v 0.038258 0.000000 0.071577
v 0.030103 0.693440 0.071577
v 0.036604 0.000000 0.088372
v 0.028605 0.693440 0.086780
v 0.031706 0.000000 0.104521
v 0.024171 0.693440 0.101399
v 0.023751 0.000000 0.119404
v 0.016969 0.693440 0.114873
v 0.013045 0.000000 0.132448
v 0.007278 0.693440 0.126681
v 0.000000 0.000000 0.143154
v -0.004532 0.693440 0.136373
v -0.014883 0.000000 0.151110
v -0.018004 0.693440 0.143575
v -0.031032 0.000000 0.156009
v -0.032623 0.693440 0.148010
v -0.047826 0.000000 0.157662
v -0.047826 0.693440 0.149507
v -0.064621 0.000000 0.156009
v -0.063029 0.693440 0.148010
v -0.080770 0.000000 0.151110
v -0.077649 0.693440 0.143575
v -0.095653 0.000000 0.143154
v -0.091121 0.693440 0.136373
v -0.108698 0.000000 0.132448
v -0.102931 0.693440 0.126681
v -0.119403 0.000000 0.119404
v -0.112622 0.693440 0.114873
v -0.127359 0.000000 0.104521
v -0.119824 0.693440 0.101399
v -0.132257 0.000000 0.088372
v -0.124258 0.693440 0.086780
v -0.133911 0.000000 0.071577
v -0.125755 0.693440 0.071577
v -0.132257 0.000000 0.054783
v -0.124258 0.693440 0.056374
v -0.127359 0.000000 0.038635
v -0.119824 0.693440 0.041756
v -0.119403 0.000000 0.023751
v -0.112622 0.693440 0.028282
v -0.108698 0.000000 0.010706
v -0.102931 0.693440 0.016474
v -0.095653 0.000000 0.000000
v -0.091121 0.693440 0.006782
v -0.080770 -0.000000 -0.007955
v -0.077649 0.693440 -0.000420
v -0.064621 -0.000000 -0.012854
v -0.063029 0.693440 -0.004854
v -0.047826 0.435128 -0.107127
v -0.012963 0.435128 -0.103694
v 0.020561 0.435128 -0.093525
v 0.051457 0.435128 -0.077011
v 0.078537 0.435128 -0.054787
v 0.100761 0.435128 -0.027706
v 0.117276 0.435128 0.003190
v 0.127445 0.435128 0.036714
v 0.130878 0.435128 0.071577
v 0.127445 0.435128 0.106441
v 0.117276 0.435128 0.139965
v 0.100761 0.435128 0.170859
v 0.078537 0.435128 0.197941
v 0.051457 0.435128 0.220165
v 0.020561 0.435128 0.236679
v -0.012963 0.435128 0.246848
v -0.047826 0.435128 0.250281
v -0.082690 0.435128 0.246848
v -0.116214 0.435128 0.236679
v -0.147110 0.435128 0.220165
v -0.174190 0.435128 0.197941
v -0.196414 0.435128 0.170859
v -0.212928 0.435128 0.139965
v -0.223097 0.435128 0.106441
v -0.226531 0.435128 0.071577
v -0.223097 0.435128 0.036714
v -0.212928 0.435128 0.003190
v -0.196414 0.435128 -0.027706
v -0.174190 0.435128 -0.054787
v -0.147110 0.435128 -0.077011
v -0.116214 0.435128 -0.093525
v -0.082690 0.435128 -0.103694
vn 0.0914 0.3619 -0.9277
vn 0.2706 0.3619 -0.8921
vn 0.4394 0.3619 -0.8221
vn 0.5914 0.3619 -0.7206
vn 0.7206 0.3619 -0.5914
vn 0.8221 0.3619 -0.4395
vn 0.8921 0.3619 -0.2706
vn 0.9277 0.3619 -0.0914
vn 0.9277 0.3619 0.0914
vn 0.8921 0.3619 0.2706
vn 0.8221 0.3619 0.4395
vn 0.7206 0.3619 0.5914
vn 0.5914 0.3619 0.7206
vn 0.4394 0.3619 0.8221
vn 0.2706 0.3619 0.8921
vn 0.0913 0.3619 0.9277
vn -0.0913 0.3619 0.9277
vn -0.2706 0.3619 0.8921
vn -0.4394 0.3619 0.8221
vn -0.5914 0.3619 0.7206
vn -0.7206 0.3619 0.5914
vn -0.8221 0.3619 0.4395
vn -0.8921 0.3619 0.2706
vn -0.9277 0.3619 0.0914
vn -0.9277 0.3619 -0.0914
vn -0.8921 0.3619 -0.2706
vn -0.8221 0.3619 -0.4394
vn -0.7206 0.3619 -0.5914
vn -0.5914 0.3619 -0.7206
vn -0.4394 0.3619 -0.8221
vn -0.0000 1.0000 -0.0000
vn -0.2706 0.3619 -0.8921
vn -0.0914 0.3619 -0.9277
vn -0.0000 -1.0000 -0.0000
vn -0.0959 -0.2072 -0.9736
vn -0.2840 -0.2072 -0.9362
vn -0.4611 -0.2072 -0.8628
vn -0.6206 -0.2072 -0.7562
vn -0.7562 -0.2072 -0.6206
vn -0.8628 -0.2072 -0.4612
vn -0.9362 -0.2072 -0.2840
vn -0.9736 -0.2072 -0.0959
vn -0.9736 -0.2072 0.0959
vn -0.9362 -0.2072 0.2840
vn -0.8628 -0.2072 0.4612
vn -0.7562 -0.2072 0.6206
vn -0.6206 -0.2072 0.7562
vn -0.4612 -0.2072 0.8628
vn -0.2840 -0.2072 0.9362
vn -0.0959 -0.2072 0.9736
vn 0.0959 -0.2072 0.9736
vn 0.2840 -0.2072 0.9362
vn 0.4612 -0.2072 0.8628
vn 0.6206 -0.2072 0.7562
vn 0.7562 -0.2072 0.6206
vn 0.8628 -0.2072 0.4612
vn 0.9362 -0.2072 0.2840
vn 0.9736 -0.2072 0.0959
vn 0.9736 -0.2072 -0.0959
vn 0.9362 -0.2072 -0.2840
vn 0.8628 -0.2072 -0.4612
vn 0.7562 -0.2072 -0.6206
vn 0.6206 -0.2072 -0.7562
vn 0.4612 -0.2072 -0.8628
vn 0.2840 -0.2072 -0.9362
vn 0.0959 -0.2072 -0.9736
vt 0.947775 0.071199
vt 0.777013 0.063609
vt 0.666967 0.112940
s 1
f 65/1/1 2/1/1 4/1/1 66/1/1
f 66/2/2 4/2/2 6/2/2 67/2/2
f 67/1/3 6/1/3 8/1/3 68/1/3
f 68/2/4 8/2/4 10/2/4 69/2/4
f 69/1/5 10/1/5 12/1/5 70/1/5
f 70/2/6 12/2/6 14/2/6 71/2/6
f 71/1/7 14/1/7 16/1/7 72/1/7
f 72/2/8 16/2/8 18/2/8 73/2/8
f 73/1/9 18/1/9 20/1/9 74/1/9
f 74/2/10 20/2/10 22/2/10 75/2/10
f 75/1/11 22/1/11 24/1/11 76/1/11
f 76/2/12 24/2/12 26/2/12 77/2/12
f 77/1/13 26/1/13 28/1/13 78/1/13
f 78/2/14 28/2/14 30/2/14 79/2/14
f 79/1/15 30/1/15 32/1/15 80/1/15
f 80/2/16 32/2/16 34/2/16 81/2/16
f 81/1/17 34/1/17 36/1/17 82/1/17
f 82/2/18 36/2/18 38/2/18 83/2/18
f 83/1/19 38/1/19 40/1/19 84/1/19
f 84/2/20 40/2/20 42/2/20 85/2/20
f 85/1/21 42/1/21 44/1/21 86/1/21
f 86/2/22 44/2/22 46/2/22 87/2/22
f 87/1/23 46/1/23 48/1/23 88/1/23
f 88/2/24 48/2/24 50/2/24 89/2/24
f 89/1/25 50/1/25 52/1/25 90/1/25
f 90/2/26 52/2/26 54/2/26 91/2/26
f 91/1/27 54/1/27 56/1/27 92/1/27
f 92/2/28 56/2/28 58/2/28 93/2/28
f 93/1/29 58/1/29 60/1/29 94/1/29
f 94/2/30 60/2/30 62/2/30 95/2/30
f 4/3/31 2/3/31 64/3/31 62/3/31 60/3/31 58/3/31 56/3/31 54/3/31 52/3/31 50/3/31 48/3/31 46/3/31 44/3/31 42/3/31 40/3/31 38/3/31 36/3/31 34/3/31 32/3/31 30/3/31 28/3/31 26/3/31 24/3/31 22/3/31 20/3/31 18/3/31 16/3/31 14/3/31 12/3/31 10/3/31 8/3/31 6/3/31
f 95/1/32 62/1/32 64/1/32 96/1/32
f 96/2/33 64/2/33 2/2/33 65/2/33
f 1/3/34 3/3/34 5/3/34 7/3/34 9/3/34 11/3/34 13/3/34 15/3/34 17/3/34 19/3/34 21/3/34 23/3/34 25/3/34 27/3/34 29/3/34 31/3/34 33/3/34 35/3/34 37/3/34 39/3/34 41/3/34 43/3/34 45/3/34 47/3/34 49/3/34 51/3/34 53/3/34 55/3/34 57/3/34 59/3/34 61/3/34 63/3/34
f 63/2/35 96/2/35 65/2/35 1/2/35
f 61/1/36 95/1/36 96/1/36 63/1/36
f 59/2/37 94/2/37 95/2/37 61/2/37
f 57/1/38 93/1/38 94/1/38 59/1/38
f 55/2/39 92/2/39 93/2/39 57/2/39
f 53/1/40 91/1/40 92/1/40 55/1/40
f 51/2/41 90/2/41 91/2/41 53/2/41
f 49/1/42 89/1/42 90/1/42 51/1/42
f 47/2/43 88/2/43 89/2/43 49/2/43
f 45/1/44 87/1/44 88/1/44 47/1/44
f 43/2/45 86/2/45 87/2/45 45/2/45
f 41/1/46 85/1/46 86/1/46 43/1/46
f 39/2/47 84/2/47 85/2/47 41/2/47
f 37/1/48 83/1/48 84/1/48 39/1/48
f 35/2/49 82/2/49 83/2/49 37/2/49
f 33/1/50 81/1/50 82/1/50 35/1/50
f 31/2/51 80/2/51 81/2/51 33/2/51
f 29/1/52 79/1/52 80/1/52 31/1/52
f 27/2/53 78/2/53 79/2/53 29/2/53
f 25/1/54 77/1/54 78/1/54 27/1/54
f 23/2/55 76/2/55 77/2/55 25/2/55
f 21/1/56 75/1/56 76/1/56 23/1/56
f 19/2/57 74/2/57 75/2/57 21/2/57
f 17/1/58 73/1/58 74/1/58 19/1/58
f 15/2/59 72/2/59 73/2/59 17/2/59
f 13/1/60 71/1/60 72/1/60 15/1/60
f 11/2/61 70/2/61 71/2/61 13/2/61
f 9/1/62 69/1/62 70/1/62 11/1/62
f 7/2/63 68/2/63 69/2/63 9/2/63
f 5/1/64 67/1/64 68/1/64 7/1/64
f 3/2/65 66/2/65 67/2/65 5/2/65
f 1/1/66 65/1/66 66/1/66 3/1/66
